<?xml version="1.0" encoding="utf-8"?>
<!-- Generator: Adobe Illustrator 14.0.0, SVG Export Plug-In . SVG Version: 6.00 Build 43363)  -->
<!DOCTYPE svg PUBLIC "-//W3C//DTD SVG 1.1//EN" "http://www.w3.org/Graphics/SVG/1.1/DTD/svg11.dtd">
<svg version="1.1" id="Ebene_1" xmlns="http://www.w3.org/2000/svg" xmlns:xlink="http://www.w3.org/1999/xlink" x="0px" y="0px"
	 width="80px" height="90px" viewBox="0 0 80 90" enable-background="new 0 0 80 90" xml:space="preserve">
<g>
	<rect width="80" height="90"/>
	<g>
		<defs>
			<rect id="SVGID_1_" width="80" height="90"/>
		</defs>
		<clipPath id="SVGID_2_">
			<use xlink:href="#SVGID_1_"  overflow="visible"/>
		</clipPath>
		<path clip-path="url(#SVGID_2_)" d="M40,12c-14.889,0-27,12.112-27,27C13,53.888,25.111,66,40,66
			C54.887,66,66.999,53.888,66.999,39C66.999,24.112,54.887,12,40,12"/>
		<path clip-path="url(#SVGID_2_)" fill="#FFFFFF" d="M65.32,39c0-13.962-11.359-25.32-25.32-25.32
			c-13.961,0-25.32,11.358-25.32,25.32c0,2.345,0.327,4.615,0.928,6.774L15.672,46C18.717,56.568,28.467,64.318,40,64.318
			c10.63,0,19.746-6.588,23.493-15.893l0.026-0.064C64.676,45.463,65.32,42.306,65.32,39 M63.142,44.189l-7.724-9.933l-5.432,4.752
			l-7.613-13.054l-3.56,5.93l-2.495,2.704l-3.434-6.261l-4.745,4.744l-5.929,8.3l-5.204,3.469c-0.473-1.869-0.727-3.825-0.727-5.839
			C16.281,25.9,26.9,15.282,40,15.282S63.717,25.9,63.717,39C63.717,40.783,63.513,42.518,63.142,44.189"/>
		<path clip-path="url(#SVGID_2_)" fill="#008FAC" d="M63.146,44.195l-7.73-9.939l-1.186,8.301l4.797,2.999l3.115,1.946
			c0.309-0.803,0.576-1.625,0.798-2.468L63.146,44.195z M51.635,46.541l1.41,3.133H38.813l-0.476-0.238l6.406-3.32h-7.797h-5.249
			l0.006,0.003l-2.378-1.188l-3.558,1.779L24.583,47.3l0.547-0.592l11.188-12.121l-3.434-6.26l-5.93,15.417l-9.164,1.832
			l-0.55,0.109c0.024,0.082,0.05,0.164,0.075,0.246l0.252,0.777C20.768,56.021,29.6,62.716,40,62.716
			c9.912,0,18.402-6.078,21.948-14.713l-6.991-1.907l-4.014-1.095L51.635,46.541z M45.93,43.743l4.744,3.815v-2.63L48.3,42.557
			h-2.37l4.057-3.551l-7.615-13.053L45.93,43.743z"/>
		<path clip-path="url(#SVGID_2_)" fill="#008FAC" d="M40,12c-14.889,0-27,12.112-27,27.001C13,53.888,25.111,66,40,66
			c14.887,0,26.999-12.111,26.999-26.999C66.999,24.112,54.887,12,40,12 M40,64.318c-13.962,0-25.321-11.357-25.321-25.317
			c0-13.962,11.359-25.319,25.321-25.319c13.961,0,25.319,11.357,25.319,25.319C65.319,52.96,53.961,64.318,40,64.318"/>
		<path clip-path="url(#SVGID_2_)" fill="#008FAC" d="M12.131,73.171h0.825c1.392,0,1.822,0.43,1.822,1.906
			c0,1.48-0.43,1.91-1.822,1.91h-0.825V73.171z M12.131,83.828V78.74h0.928c2.629,0,3.85-1.014,3.85-3.662
			c0-2.645-1.22-3.66-3.85-3.66h-3.06v12.41H12.131z M18.593,80.82c0,1.752,1.031,3.18,3.266,3.18c2.234,0,3.265-1.428,3.265-3.18
			v-6.395c0-1.754-1.031-3.18-3.265-3.18c-2.234,0-3.266,1.426-3.266,3.18V80.82z M20.725,74.478c0-0.928,0.275-1.375,1.134-1.375
			c0.86,0,1.134,0.447,1.134,1.375v6.291c0,0.926-0.274,1.373-1.134,1.373c-0.859,0-1.134-0.447-1.134-1.373V74.478z M32.567,83.828
			v-1.855h-3.352V71.417h-2.131v12.41H32.567z M36.64,73.894h0.034l0.842,5.326h-1.719L36.64,73.894z M35.488,81.076h2.338
			l0.378,2.752h2.062l-2.285-12.41h-2.646l-2.286,12.41h2.062L35.488,81.076z M43.635,73.171h0.756c1.152,0,1.582,0.43,1.582,1.906
			c0,1.48-0.43,1.91-1.582,1.91h-0.756V73.171z M43.635,78.74c0.378,0,0.824-0.018,1.1-0.053l1.512,5.141h2.167l-1.806-5.621
			c0.723-0.328,1.496-1.133,1.496-3.129c0-2.645-1.22-3.66-3.609-3.66h-2.991v12.41h2.132V78.74z M52.521,71.417h-2.133v12.41h2.133
			V71.417z M56.801,83.828v-7.752h0.033l2.716,7.752h1.856v-12.41H59.48v7.1h-0.033l-2.596-7.1h-1.978v12.41H56.801z M63.468,80.82
			c0,1.752,1.032,3.18,3.266,3.18s3.266-1.428,3.266-3.18v-6.395c0-1.754-1.032-3.18-3.266-3.18s-3.266,1.426-3.266,3.18V80.82z
			 M65.6,74.478c0-0.928,0.273-1.375,1.134-1.375c0.859,0,1.135,0.447,1.135,1.375v6.291c0,0.926-0.275,1.373-1.135,1.373
			c-0.86,0-1.134-0.447-1.134-1.373V74.478z"/>
		<path clip-path="url(#SVGID_2_)" fill="#008FAC" d="M70.992,70.232h0.331c0.337,0,0.446-0.096,0.446-0.295
			c0-0.174-0.084-0.271-0.4-0.271h-0.377V70.232z M70.992,71.248h-0.278v-1.811h0.692c0.433,0,0.645,0.16,0.645,0.516
			c0,0.326-0.204,0.465-0.475,0.5l0.516,0.795h-0.305l-0.482-0.787h-0.312V71.248z M71.326,69.027c-0.728,0-1.291,0.562-1.291,1.312
			c0,0.766,0.563,1.32,1.291,1.32c0.72,0,1.282-0.555,1.282-1.32C72.608,69.589,72.046,69.027,71.326,69.027 M71.326,68.773
			c0.855,0,1.587,0.664,1.587,1.566c0,0.908-0.731,1.572-1.587,1.572c-0.863,0-1.596-0.664-1.596-1.572
			C69.73,69.437,70.463,68.773,71.326,68.773"/>
	</g>
</g>
</svg>
